Coordinates
version=1
nRows=16
nColumns=36
inDegrees=yes

Units are S.I. units (second, meters, Newtons, ...)
If the header above contains a line with 'inDegrees', this indicates whether rotational values are in degrees (yes) or radians (no).

endheader
time	pelvis_tilt	pelvis_list	pelvis_rotation	pelvis_tx	pelvis_ty	pelvis_tz	hip_flexion_r	hip_adduction_r	hip_rotation_r	knee_angle_r	knee_angle_r_beta	ankle_angle_r	subtalar_angle_r	mtp_angle_r	hip_flexion_l	hip_adduction_l	hip_rotation_l	knee_angle_l	knee_angle_l_beta	ankle_angle_l	subtalar_angle_l	mtp_angle_l	lumbar_extension	lumbar_bending	lumbar_rotation	arm_flex_r	arm_add_r	arm_rot_r	elbow_flex_r	pro_sup_r	arm_flex_l	arm_add_l	arm_rot_l	elbow_flex_l	pro_sup_l
      1.47083330	    -27.69923735	     -4.92817260	      3.54408410	     -0.95752461	      1.19023992	     -0.10575499	     43.82705929	      1.07474205	      2.86589822	     33.80859138	      0.59007124	      6.23383969	    -33.13808481	     -7.49999987	     45.35888879	     -2.31478274	      6.61281950	     34.30020225	      0.59865146	     14.90381156	    -18.91400886	     -7.49999987	    -14.54319711	      5.09719187	     -4.40302122	    -11.88690017	    -16.15337310	     36.91680927	     11.91122081	     54.09939811	    -12.05651308	    -16.84981807	     65.39922762	     11.50702375	     38.82331456
      1.47500000	    -27.60598610	     -4.87653324	      3.80606047	     -0.95667486	      1.18584847	     -0.10546665	     44.32080988	      0.72003529	      2.36143135	     34.85157623	      0.60827475	      6.66505132	    -33.16285988	     -7.49999987	     45.52059374	     -2.11959774	      6.77397447	     34.83805832	      0.60803882	     15.47420497	    -18.42854605	     -7.49999987	    -14.92367843	      5.00120640	     -5.11515483	    -10.94557305	    -16.14746710	     41.25447668	     11.25504811	     53.94244065	    -12.37193733	    -16.89795088	     62.47970695	     11.98340255	     37.10205703
      1.47916670	    -27.63121427	     -4.83831971	      4.06196851	     -0.95632837	      1.18563744	     -0.10579903	     44.79984327	      0.42382896	      2.04486445	     35.78077057	      0.62449226	      6.99448866	    -33.08920290	     -7.49999987	     45.69809049	     -1.92374567	      6.98434002	     35.15570756	      0.61358285	     15.84404529	    -17.94750011	     -7.49999987	    -15.24911455	      4.96090259	     -5.14586437	    -11.12701902	    -16.33154649	     41.80249575	     12.35971171	     53.18464107	    -11.81919506	    -16.89855902	     62.77268653	     11.17990194	     39.33935982
      1.48333330	    -27.53564648	     -4.82289486	      4.22825563	     -0.95599047	      1.18090279	     -0.10560723	     45.40486281	      0.18789453	      1.65301508	     37.15258351	      0.64843491	      7.47469520	    -33.01041780	     -7.49999987	     45.85910819	     -1.74707381	      7.31597606	     35.77519154	      0.62439488	     16.06491313	    -18.16783379	     -7.49999987	    -15.74496337	      4.93236125	     -5.11340413	    -11.28928593	    -16.40113068	     41.49644679	     12.83200501	     52.88095660	    -11.68272896	    -17.22539747	     61.85107892	     11.71225387	     38.71341543
      1.48750000	    -27.64437400	     -4.76956602	      4.37781543	     -0.95608807	      1.18083734	     -0.10579624	     46.04027258	     -0.06607123	      1.33674539	     38.25863969	      0.66773923	      7.89904818	    -32.83507205	     -7.49999987	     46.12258872	     -1.58063567	      7.34738716	     36.04015935	      0.62901944	     16.92256272	    -16.88360411	     -7.49999987	    -15.83968193	      4.91674359	     -5.94640366	     -9.91470473	    -16.70038171	     48.67577935	     12.46360289	     48.05161392	    -11.61924428	    -17.25149942	     62.38673687	     12.04181726	     36.31739941
      1.49166670	    -27.70020077	     -4.74765068	      4.50536440	     -0.95548925	      1.18011459	     -0.10558342	     46.44401106	     -0.27755520	      1.03671659	     39.05871575	      0.68170319	      8.14877316	    -32.69694327	     -7.49999987	     46.19600192	     -1.42117520	      7.52479292	     36.07438180	      0.62961674	     17.18871009	    -16.30384426	     -7.49999987	    -16.10269232	      5.05303676	     -6.09386110	     -9.50572494	    -16.92452467	     48.85649515	     13.32389656	     48.12422281	    -11.08831029	    -17.29122253	     62.62420784	     12.31625120	     37.61763898
      1.49583330	    -27.63032318	     -4.73036517	      4.74235328	     -0.95548601	      1.17673763	     -0.10574240	     46.96593112	     -0.53678622	      0.64402731	     40.31198498	      0.70357687	      8.78531727	    -32.56554431	     -7.49999987	     46.47088033	     -1.18430083	      7.81435320	     36.74329954	      0.64129156	     17.87381528	    -15.82639813	     -7.49999987	    -16.48638329	      5.24230866	     -6.54476539	     -8.82200508	    -17.02244507	     49.53384847	     13.50615144	     47.95076771	    -10.79889041	    -17.56567211	     62.59801503	     13.43699517	     38.17403157
      1.50000000	    -27.72651899	     -4.73498345	      4.83928388	     -0.96083092	      1.17943748	     -0.10092364	     47.54702554	     -0.61643482	      0.32487335	     40.94652509	      0.71465168	      9.05384923	    -32.67933683	     -7.49999987	     46.98342347	     -1.10915482	      8.13272239	     37.24716992	      0.65008575	     17.90294502	    -15.79943079	     -7.49999987	    -17.03217182	      5.40031494	     -6.72111770	     -8.00385368	    -16.88595747	     49.61464641	     13.66635415	     47.93900208	     -9.92198225	    -17.69619823	     62.60099791	     13.65828550	     38.17478458
      1.50416670	    -27.83517554	     -4.77790263	      5.12318345	     -0.96060458	      1.17576565	     -0.10102225	     48.24171140	     -0.73041010	      0.02979596	     41.88603866	      0.73104929	      9.84883263	    -32.52144399	     -7.49999987	     47.56495105	     -0.96289022	      8.46325095	     37.89633884	      0.66141589	     18.31432013	    -15.52420586	     -7.49999987	    -17.47867474	      5.65212690	     -7.12543680	     -7.27152628	    -17.10171413	     52.84204759	     14.10249839	     46.80676276	     -9.38066571	    -18.66637974	     65.17784506	     15.81375890	     37.83356358
      1.50833330	    -28.01449749	     -4.74081671	      5.55801590	     -0.95962818	      1.17480835	     -0.10117062	     48.81223984	     -1.04144201	     -0.22751054	     42.53941474	      0.74245285	     10.02674586	    -32.63226384	     -7.49999987	     48.10799988	     -0.68250255	      8.69490532	     38.36539390	      0.66960244	     18.26023818	    -15.29773761	     -7.49999987	    -17.92422319	      5.61828307	     -7.21822768	     -6.86940039	    -16.87655834	     53.01092542	     14.82325802	     46.81670513	     -8.53041328	    -19.04646876	     65.53847405	     16.08146854	     38.80671882
      1.51250000	    -28.15138025	     -4.63148996	      5.83781832	     -0.95948190	      1.17113215	     -0.10145727	     49.44604131	     -1.25320832	     -0.16633342	     43.52319414	      0.75962304	     10.24949154	    -32.74142481	     -7.49999987	     48.67869353	     -0.34884681	      8.96634393	     39.10007297	      0.68242501	     18.33521793	    -15.20223204	     -7.49999987	    -18.31952162	      5.56222762	     -7.15228329	     -6.69918092	    -16.75197649	     53.23348249	     15.25965267	     46.57455459	     -7.93662180	    -19.51001641	     65.94035475	     17.02584061	     39.32571446
      1.51666670	    -28.08480745	     -4.70509650	      6.05046628	     -0.95833727	      1.17038316	     -0.10136759	     49.72750074	     -1.22632684	     -0.16508108	     44.37909990	      0.77456141	     10.80514961	    -32.86333677	     -7.49999987	     49.09413049	     -0.24078768	      9.31161075	     40.09621702	      0.69981100	     18.25130889	    -15.75634092	     -7.49999987	    -18.87816406	      5.71233613	     -7.03180396	     -6.20817340	    -16.63934494	     54.14906360	     15.73456022	     46.54635188	     -7.18706623	    -19.77969443	     66.89692240	     17.55175793	     39.54919685
      1.52083330	    -27.98632581	     -4.74167313	      6.06850174	     -0.95864435	      1.15982463	     -0.10128596	     50.19919425	     -1.07828044	      0.04049173	     45.58677016	      0.79563923	     11.65529982	    -33.10594291	     -7.49999987	     49.77843623	     -0.27931032	      9.31230299	     41.67515781	      0.72736872	     18.71092227	    -16.31429402	     -7.49999987	    -19.43306589	      5.81378165	     -6.88615370	     -6.01735119	    -16.58471474	     54.21261163	     16.03332194	     46.61486117	     -7.01313479	    -19.93346725	     66.91690150	     17.82743942	     39.63272915
      1.52500000	    -28.73007002	     -4.86400946	      6.03225844	     -0.95798044	      1.15868768	     -0.10106471	     51.45591615	     -0.94799376	      0.21192451	     46.62909371	      0.81383121	     12.46256814	    -33.01070473	     -7.49999987	     51.28806016	     -0.18961518	      9.42174230	     43.00856273	      0.75064103	     19.26835455	    -16.33036008	     -7.49999987	    -18.73914474	      6.06037089	     -6.39474637	     -6.29298344	    -16.88033758	     54.90142913	     16.76747828	     47.27725298	     -6.62037959	    -20.26912355	     67.89919797	     18.91618670	     41.10360769
      1.52916670	    -29.15168110	     -4.94295554	      6.02956337	     -0.95863058	      1.15468163	     -0.10135758	     52.36274667	     -0.85265861	      0.30950970	     47.41865316	      0.82761162	     12.99457319	    -32.95677820	     -7.49999987	     52.28147237	     -0.01113892	      9.62377722	     44.00806369	      0.76808561	     19.85858548	    -16.09260778	     -7.49999987	    -18.45112362	      6.15405674	     -6.16147600	     -5.94415126	    -17.42675667	     58.13671281	     18.48107230	     46.37104055	     -5.82823297	    -20.66797637	     71.72581583	     19.99021299	     38.68407152
      1.53333330	    -29.67703925	     -5.03894316	      5.95981897	     -0.95837799	      1.15054504	     -0.10999203	     53.32632960	     -1.07719492	      0.18758375	     48.33483440	      0.84360200	     13.63551145	    -33.02209081	     -7.49999987	     53.44941991	      0.48398336	      9.89204466	     45.19885497	      0.78886884	     20.62263558	    -16.18956060	     -7.49999987	    -18.05914183	      6.49331233	     -5.76737391	     -5.94574638	    -18.03604893	     58.02077419	     19.60997836	     46.34821226	     -5.13899778	    -20.01084242	     71.88009639	     19.77316720	     38.59428655
